<?xml version="1.0" standalone="no"?>
<!DOCTYPE svg PUBLIC "-//W3C//DTD SVG 20010904//EN"
 "http://www.w3.org/TR/2001/REC-SVG-20010904/DTD/svg10.dtd">
<svg version="1.0" xmlns="http://www.w3.org/2000/svg"
 width="616.000000pt" height="616.000000pt" viewBox="0 0 616.000000 616.000000"
 preserveAspectRatio="xMidYMid meet">
<metadata>
Created by potrace 1.14, written by Peter Selinger 2001-2017
</metadata>
<g transform="translate(0.000000,616.000000) scale(0.100000,-0.100000)"
fill="#000000" stroke="none">
<path d="M2848 6135 c-2 -1 -50 -6 -107 -9 -57 -4 -107 -8 -110 -10 -3 -2 -31
-7 -63 -10 -124 -13 -351 -67 -518 -123 -331 -110 -655 -288 -940 -517 -109
-87 -353 -335 -450 -456 -179 -225 -313 -455 -445 -765 -38 -90 -114 -339
-136 -444 -26 -127 -43 -236 -54 -336 -3 -33 -8 -80 -11 -105 -6 -48 -6 -357
0 -425 12 -154 27 -253 72 -482 14 -70 83 -288 131 -408 198 -504 528 -942
960 -1274 65 -50 123 -95 129 -100 6 -5 25 -16 42 -25 18 -9 32 -21 32 -26 0
-6 3 -9 8 -8 8 3 154 -82 163 -95 3 -5 8 -8 10 -7 12 4 38 -14 32 -23 -4 -6
-1 -7 6 -2 15 9 63 -14 55 -26 -3 -5 3 -6 12 -2 10 3 22 0 28 -8 6 -8 20 -16
31 -17 11 -2 23 -8 26 -14 3 -5 8 -8 10 -6 2 1 40 -12 84 -31 116 -48 117 -49
157 -62 20 -7 34 -17 31 -22 -3 -5 3 -6 14 -3 10 3 58 -7 105 -23 48 -16 89
-27 92 -23 3 3 6 0 6 -6 0 -6 7 -9 17 -5 9 4 14 2 11 -3 -3 -5 17 -10 45 -11
29 -1 53 -6 55 -12 2 -5 9 -8 17 -5 7 3 16 1 19 -4 3 -5 17 -7 31 -4 14 2 25
0 25 -4 0 -5 19 -9 43 -10 71 -2 152 -16 159 -28 6 -8 8 -8 8 1 0 7 11 9 33 5
17 -3 124 -6 237 -6 124 -1 208 -5 212 -11 5 -6 8 -6 8 1 0 6 10 11 23 10 12
-1 41 1 65 5 24 3 42 2 42 -4 0 -5 7 -4 15 3 8 7 30 10 49 8 19 -2 33 -1 30 3
-2 4 8 8 23 8 16 0 39 2 53 5 14 3 50 10 80 16 30 6 64 12 75 14 43 9 194 48
260 68 39 12 72 22 75 23 3 1 19 7 35 14 17 8 42 14 57 15 14 0 24 4 21 9 -2
4 2 7 9 7 8 0 31 9 52 19 31 16 58 28 106 46 24 9 46 20 50 24 3 3 50 29 105
56 55 28 102 53 105 56 3 3 25 16 50 30 25 13 47 26 50 29 17 18 62 40 71 35
5 -4 8 -2 7 3 -2 5 51 50 117 99 66 50 130 100 142 112 12 11 27 21 33 21 6 0
8 4 5 10 -3 5 -2 10 3 10 13 0 222 207 282 279 25 29 55 65 68 80 12 14 43 54
69 88 25 34 50 60 56 56 6 -3 7 -1 3 5 -8 13 17 55 27 47 4 -3 5 -2 3 1 -3 3
25 54 61 112 91 147 151 265 230 452 27 63 44 106 49 125 1 6 16 52 33 104 17
52 38 127 48 167 9 40 19 71 22 69 3 -2 6 11 7 28 0 31 11 106 19 137 7 27 28
190 28 220 0 8 5 18 11 22 7 5 7 8 1 8 -7 0 -9 22 -5 60 3 33 5 79 5 103 -1
27 4 47 14 55 12 9 12 12 2 10 -10 -2 -14 18 -17 92 -3 104 -10 205 -21 290
-3 30 -7 67 -7 83 -1 15 -3 27 -6 27 -3 0 -6 8 -6 18 -1 22 -11 79 -25 139 -6
27 -12 56 -14 66 -2 10 -7 27 -10 37 -3 10 -8 29 -11 42 -6 26 -9 37 -16 58
-3 8 -20 62 -38 120 -18 58 -36 110 -40 115 -9 13 -34 89 -31 94 2 2 -2 7 -7
10 -6 3 -12 15 -14 26 -1 11 -9 26 -16 34 -7 7 -11 20 -8 28 3 8 2 12 -3 9
-12 -8 -23 22 -14 37 3 7 3 9 -2 5 -11 -10 -47 60 -39 74 4 7 3 8 -4 4 -8 -5
-12 0 -12 13 0 10 -4 21 -8 23 -4 2 -30 41 -57 88 -27 47 -66 109 -87 139 -21
29 -35 58 -31 64 3 5 1 7 -4 4 -11 -7 -59 60 -55 76 1 4 -2 6 -7 5 -11 -3 -71
76 -71 94 0 6 -3 8 -7 5 -8 -9 -39 34 -35 48 2 6 1 7 -3 3 -4 -3 -32 22 -63
55 -118 130 -261 260 -447 405 -90 71 -283 187 -445 267 -218 109 -473 199
-695 246 -33 7 -64 14 -70 15 -5 1 -30 5 -55 8 -25 4 -52 9 -60 11 -8 2 -44 7
-80 10 -36 4 -76 9 -90 11 -31 5 -427 13 -432 9z m123 -95 c12 7 20 6 25 -1 4
-8 9 -7 15 2 6 9 9 10 9 2 0 -8 9 -9 29 -3 16 4 32 6 35 3 3 -3 32 -5 66 -5
33 0 60 -3 60 -7 0 -3 33 -7 73 -8 76 -1 162 -11 187 -20 8 -3 29 -7 45 -8 17
-2 41 -6 55 -9 14 -3 36 -7 50 -10 99 -21 198 -51 194 -58 -3 -4 2 -5 10 -2 9
3 24 3 34 -1 9 -5 23 -9 30 -11 8 -1 23 -11 35 -21 11 -10 17 -12 13 -5 -4 6
-6 12 -4 12 5 0 111 -40 138 -52 14 -6 34 -14 45 -19 11 -4 56 -24 100 -45 44
-20 86 -38 93 -40 8 -1 21 -9 30 -16 10 -7 43 -27 74 -43 31 -16 54 -33 51
-37 -2 -5 -1 -7 4 -6 12 4 103 -43 103 -54 0 -4 6 -8 13 -8 15 0 207 -141 291
-213 11 -11 45 -39 73 -64 29 -25 50 -50 46 -56 -3 -5 -2 -7 4 -4 14 9 172
-157 296 -313 182 -227 361 -563 462 -865 32 -96 81 -283 90 -345 4 -24 8 -47
10 -50 2 -3 11 -62 21 -130 19 -134 26 -511 12 -667 -35 -385 -167 -800 -367
-1158 -40 -71 -188 -288 -245 -360 -115 -144 -272 -304 -431 -440 -51 -44
-230 -172 -317 -226 -268 -168 -656 -324 -933 -374 -270 -49 -372 -59 -590
-59 -273 0 -461 23 -730 91 -264 66 -584 202 -795 338 -25 16 -53 34 -62 40
-32 19 -153 104 -180 127 -15 13 -39 31 -53 41 -14 10 -22 23 -19 29 4 6 3 8
-3 5 -14 -9 -85 52 -76 66 3 7 3 9 -2 5 -11 -10 -47 11 -40 23 4 5 2 8 -3 7
-14 -4 -161 145 -155 157 4 5 3 7 -2 3 -9 -8 -11 -5 -85 82 -30 36 -58 67 -62
68 -5 2 -8 10 -8 18 0 8 -4 14 -8 14 -12 0 -55 61 -55 77 0 7 -7 13 -14 13 -8
0 -11 5 -8 10 3 5 2 10 -4 10 -5 0 -20 17 -32 37 -13 21 -27 39 -31 41 -4 2
-8 8 -8 14 0 6 -11 26 -26 45 -14 18 -21 33 -17 33 4 0 3 4 -3 8 -28 18 -169
297 -158 314 4 6 3 8 -3 5 -13 -8 -26 20 -16 35 3 7 1 8 -5 4 -11 -7 -16 7
-15 41 1 7 -3 10 -8 7 -5 -3 -10 0 -10 5 -2 16 -4 23 -18 56 -18 43 -39 107
-43 130 -2 11 -6 22 -10 26 -4 3 -9 18 -11 35 -2 16 -6 35 -10 41 -14 22 -44
149 -50 208 -1 11 -6 23 -12 27 -6 5 -4 8 5 8 11 0 12 2 3 8 -7 4 -13 28 -15
52 -2 25 -6 47 -9 50 -4 3 -10 36 -13 73 -4 37 -9 78 -12 90 -2 12 -6 101 -9
197 -3 131 -1 176 8 182 8 5 8 8 1 8 -8 0 -11 14 -9 38 2 20 6 71 10 112 10
128 17 174 29 189 7 10 7 13 0 8 -10 -5 27 187 56 298 6 22 12 45 13 50 1 6 5
15 8 20 4 6 12 34 19 62 6 29 16 51 20 48 5 -3 6 4 3 15 -3 12 0 20 6 20 7 0
9 4 6 10 -3 5 0 20 7 32 7 13 13 25 13 28 10 58 174 392 188 383 6 -3 7 -1 3
6 -4 6 1 23 12 39 10 15 22 35 25 45 4 10 10 16 15 13 4 -2 9 4 9 15 1 11 12
32 25 47 13 16 36 49 52 75 17 26 34 47 38 47 4 0 8 5 8 10 0 6 5 16 10 23 6
7 35 44 66 82 95 118 196 225 207 218 6 -3 7 -1 4 4 -12 19 276 269 295 257 5
-3 7 0 6 6 -2 7 6 17 16 23 11 7 28 20 38 30 10 9 22 17 27 17 5 0 16 6 23 13
18 19 98 69 98 62 0 -3 10 4 22 15 34 32 148 91 160 84 6 -4 8 -2 5 3 -4 6 10
18 31 27 20 9 44 21 52 26 17 11 96 46 180 80 30 12 64 26 75 31 11 6 30 11
43 12 12 0 22 4 22 8 0 4 23 13 51 19 28 7 72 20 98 30 26 9 59 16 73 16 15
-1 25 1 23 5 -7 10 162 42 176 34 8 -6 10 -4 4 5 -5 8 -3 11 6 8 8 -3 22 -1
33 4 14 8 17 7 10 -4 -7 -11 -5 -11 9 0 9 8 44 14 80 15 36 1 63 5 60 10 -4 7
25 9 179 11 43 1 78 5 78 11 0 5 5 4 12 -3 7 -7 17 -8 29 -2z"/>
<path d="M2113 5845 c0 -8 4 -12 9 -9 5 3 6 10 3 15 -9 13 -12 11 -12 -6z"/>
<path d="M2030 5800 c0 -5 5 -10 11 -10 5 0 7 5 4 10 -3 6 -8 10 -11 10 -2 0
-4 -4 -4 -10z"/>
<path d="M2875 5769 c-146 -7 -216 -14 -300 -29 -27 -5 -72 -12 -100 -16 -29
-3 -58 -14 -70 -25 -19 -18 -18 -19 35 -13 30 3 66 7 80 10 14 3 52 7 85 10
33 2 70 7 81 9 25 6 55 -22 33 -29 -8 -2 -21 -5 -29 -5 -225 -6 -243 -9 -380
-56 -74 -25 -164 -54 -200 -64 -200 -58 -584 -232 -683 -311 -7 -5 -48 -38
-92 -73 -45 -35 -121 -102 -170 -150 -50 -48 -119 -115 -154 -150 -85 -82
-205 -234 -275 -346 -84 -136 -206 -392 -206 -433 l0 -23 24 25 c13 14 22 27
20 29 -2 2 9 26 25 55 42 78 55 100 64 107 5 3 8 9 8 13 -2 16 54 114 62 109
6 -3 7 -1 4 5 -14 22 115 238 135 226 6 -4 8 -2 4 4 -5 9 104 132 118 132 3 0
0 -11 -6 -25 -6 -14 -17 -25 -25 -25 -7 0 -12 -3 -11 -7 3 -8 -57 -101 -76
-118 -6 -6 -19 -24 -28 -40 -10 -17 -22 -29 -27 -28 -5 1 -8 -5 -7 -15 0 -9
-4 -16 -10 -15 -6 1 -10 -8 -10 -20 1 -12 -4 -21 -9 -20 -6 1 -12 -8 -12 -20
-1 -12 -7 -23 -13 -25 -5 -2 -8 -8 -4 -13 3 -5 0 -9 -6 -9 -6 0 -8 -4 -5 -10
3 -5 1 -18 -5 -29 -7 -14 -7 -22 2 -27 6 -4 8 -3 5 3 -4 6 -1 16 7 22 11 9 15
9 20 -1 3 -7 3 -3 0 10 -4 15 0 24 10 28 9 3 14 10 11 14 -3 4 2 10 10 14 25
9 17 -16 -31 -105 -26 -46 -58 -106 -73 -132 -29 -56 -73 -92 -99 -82 -13 5
-14 4 -5 -6 9 -9 7 -21 -8 -51 -51 -100 -129 -340 -144 -443 -4 -22 -11 -57
-16 -79 -13 -48 -24 -253 -24 -437 0 -76 -3 -139 -6 -139 -9 0 -16 30 -15 62
1 14 -2 24 -6 22 -4 -3 -8 5 -7 18 0 13 -4 41 -8 63 -5 22 -8 68 -8 102 1 34
-3 59 -8 56 -4 -2 -6 -102 -3 -221 3 -181 8 -237 29 -337 14 -66 28 -138 31
-159 11 -69 14 -50 9 56 -6 109 5 127 18 30 15 -106 35 -196 58 -255 6 -15 10
-31 9 -35 -2 -11 15 -46 31 -62 13 -13 14 -10 8 30 -4 25 -9 56 -12 70 -3 14
-8 36 -11 50 -2 14 -7 31 -9 39 -6 16 -36 157 -40 186 -2 11 -6 32 -10 48 -4
15 -3 27 2 27 5 0 9 -8 10 -17 2 -21 4 -34 32 -163 11 -52 30 -131 41 -174 12
-43 19 -85 16 -93 -3 -8 -1 -11 4 -8 6 3 11 1 11 -4 3 -23 16 -68 29 -96 27
-60 39 -98 34 -106 -3 -5 -1 -9 4 -9 6 0 17 -17 25 -38 9 -21 27 -52 41 -69
14 -17 26 -34 26 -37 0 -3 14 -28 31 -56 17 -27 29 -56 26 -62 -7 -20 68 -158
86 -158 5 0 5 6 2 13 -13 25 48 -51 115 -145 38 -53 77 -103 86 -112 9 -9 17
-23 18 -31 1 -8 15 -28 31 -45 16 -16 25 -30 21 -30 -4 0 6 -12 23 -26 17 -14
28 -30 25 -35 -3 -5 -1 -8 3 -7 11 4 82 -70 75 -77 -3 -3 -1 -5 5 -5 5 0 24
-13 40 -29 31 -29 65 -51 80 -51 4 0 -22 28 -60 63 -37 35 -67 66 -67 70 0 9
138 -106 158 -131 6 -9 12 -12 12 -7 0 4 8 -2 19 -13 10 -12 21 -19 25 -15 3
3 6 2 6 -3 0 -5 16 -18 35 -28 19 -10 32 -23 28 -29 -3 -6 -2 -7 4 -4 14 9 55
-22 47 -35 -4 -7 -2 -8 4 -4 16 9 73 -25 65 -38 -3 -6 -3 -8 2 -4 8 7 65 -21
65 -32 0 -3 10 -6 22 -7 11 -1 24 -6 27 -11 3 -5 47 -28 98 -52 50 -24 89 -48
86 -54 -3 -5 -1 -6 5 -2 6 4 27 0 46 -8 19 -8 37 -12 40 -8 3 3 6 0 6 -6 0 -7
7 -9 17 -5 12 5 15 2 11 -9 -5 -11 0 -14 19 -10 20 4 24 2 18 -8 -5 -8 -4 -11
3 -6 6 4 27 0 46 -8 19 -8 37 -12 40 -8 3 3 6 1 6 -5 0 -6 8 -9 19 -6 10 2 25
-2 32 -10 7 -8 21 -12 31 -9 10 2 18 0 18 -4 0 -5 17 -10 37 -12 21 -1 41 -6
46 -11 5 -5 16 -7 23 -4 8 3 14 1 14 -4 0 -4 12 -8 28 -8 52 -1 137 -18 144
-29 5 -8 8 -7 8 2 0 8 5 10 12 6 12 -8 37 -10 155 -16 28 -2 54 -5 57 -8 3 -3
33 -5 68 -4 57 2 61 1 44 -12 -11 -8 -15 -14 -9 -14 6 0 15 6 21 13 8 9 35 13
84 12 40 -1 78 2 83 6 6 4 19 7 28 5 10 -1 40 1 67 4 33 4 47 3 43 -4 -3 -6 0
-5 8 2 15 14 53 17 44 3 -3 -5 0 -13 6 -17 8 -4 9 -3 5 4 -10 17 28 34 44 19
10 -9 11 -9 6 1 -4 7 -1 12 8 12 8 0 17 -6 19 -12 4 -9 6 -7 6 3 1 15 13 18
93 23 14 0 24 4 21 8 -2 5 6 8 19 7 13 0 57 9 98 20 41 12 81 19 88 16 7 -3
11 -1 8 4 -7 11 41 24 56 15 7 -5 8 -2 3 6 -6 10 -4 12 8 7 10 -3 17 -2 17 4
0 6 5 7 10 4 6 -4 7 -11 4 -17 -4 -7 -2 -8 5 -4 6 4 9 11 6 16 -8 13 31 31 51
23 12 -4 15 -3 10 5 -7 11 7 16 41 15 7 -1 11 3 8 7 -3 5 8 11 25 15 16 4 30
11 30 17 0 6 7 7 16 4 9 -3 12 -2 9 5 -4 6 3 8 22 4 17 -4 23 -3 16 2 -9 6 -4
12 17 20 17 6 28 7 24 2 -3 -5 11 1 31 13 31 18 38 19 46 7 8 -11 9 -9 7 6 -2
15 3 20 18 19 13 0 20 5 17 12 -5 14 24 27 39 17 6 -3 8 -1 4 5 -3 6 10 20 30
33 30 18 38 20 46 8 8 -11 9 -10 4 3 -3 12 5 25 26 40 18 12 28 16 23 7 -4 -7
4 -1 18 14 15 15 32 25 37 22 6 -3 10 2 10 11 0 10 3 15 6 11 3 -3 19 8 35 24
16 17 34 27 41 23 6 -4 8 -3 5 4 -4 5 8 22 25 36 18 14 41 32 51 41 20 18 31
20 21 3 -4 -7 -3 -8 5 -4 6 4 9 11 6 15 -2 5 5 17 18 27 13 12 17 13 9 3 -9
-12 -9 -16 1 -16 7 0 14 9 14 20 2 22 19 37 37 33 6 -2 8 -1 4 1 -15 8 -8 25
7 19 8 -3 14 -2 12 2 -1 4 8 20 21 36 12 16 22 25 22 20 0 -5 10 6 21 24 12
17 25 32 29 32 5 0 12 9 15 20 3 11 11 20 16 20 6 0 7 -5 3 -12 -4 -7 -3 -8 5
-4 6 4 9 11 6 16 -6 10 16 50 27 50 4 0 5 -9 3 -20 -2 -11 0 -18 5 -15 5 3 7
17 4 30 -3 16 1 27 10 31 8 3 16 15 19 26 4 13 11 19 21 15 10 -4 13 -1 9 9
-3 8 4 23 16 33 11 10 18 21 14 25 -6 5 12 10 29 7 5 0 7 2 7 7 -3 19 2 33 11
27 5 -3 8 0 5 7 -3 7 6 25 20 41 14 15 23 27 19 27 -3 0 0 7 7 16 7 9 18 26
24 38 6 11 18 21 27 21 9 0 20 4 25 9 4 5 3 6 -4 2 -6 -3 -14 -2 -18 4 -3 5
-1 10 5 10 6 0 8 5 5 10 -3 6 -1 10 4 10 6 0 10 3 9 8 -3 14 14 42 23 36 5 -3
6 2 3 10 -3 9 -1 16 6 16 6 0 9 4 5 9 -3 5 1 15 8 23 8 7 12 18 10 23 -2 6 4
20 13 30 8 11 12 14 8 6 -4 -9 -3 -12 4 -8 5 4 8 15 5 26 -3 11 4 28 19 41 12
13 17 20 10 16 -10 -6 -10 -2 0 18 6 14 15 26 19 26 5 0 6 6 3 13 -2 7 2 27
11 43 8 16 15 35 15 42 0 6 5 12 11 12 5 0 8 4 5 8 -3 5 1 19 8 33 7 13 13 26
13 29 1 3 4 22 8 42 4 23 11 35 18 31 5 -3 7 -2 4 3 -7 12 26 167 34 159 4 -3
9 1 13 10 4 11 2 14 -6 9 -8 -5 -9 -2 -5 10 4 10 7 27 7 37 0 11 4 18 9 15 5
-4 7 3 4 14 -3 11 -2 28 2 37 5 10 7 22 6 27 -1 5 6 6 16 2 17 -6 17 -5 1 7
-13 10 -15 23 -11 55 3 23 9 39 14 36 5 -3 9 0 9 5 0 6 -6 11 -12 11 -8 0 -9
3 -3 8 6 4 11 25 11 47 1 22 2 62 3 88 1 35 4 46 14 41 10 -6 10 -4 0 7 -7 7
-13 19 -13 27 0 8 5 10 13 6 10 -6 10 -4 0 7 -7 7 -13 22 -13 32 0 16 3 17 14
8 11 -9 16 -9 22 0 4 7 3 9 -3 6 -23 -14 -33 21 -29 104 2 46 6 93 9 104 3 11
6 43 6 70 1 36 4 46 11 35 6 -9 10 -10 10 -3 0 6 -4 14 -9 17 -11 7 -9 25 3
45 7 11 6 12 -5 6 -12 -7 -12 -6 -1 7 10 13 10 17 0 20 -11 4 -11 8 0 20 10
13 10 17 0 20 -10 4 -10 8 1 21 10 13 10 17 1 17 -9 0 -9 4 1 17 8 9 9 14 4
11 -7 -4 -11 9 -12 33 -1 24 3 39 10 39 8 0 8 3 -1 9 -17 11 -25 100 -10 118
8 10 8 12 -3 8 -10 -4 -15 2 -17 17 -1 13 -5 41 -8 63 -3 22 -7 54 -8 72 0 17
-4 29 -8 26 -5 -2 -8 -1 -9 4 0 4 -3 17 -5 28 -2 11 -6 31 -9 45 -2 14 -4 26
-6 28 -1 1 -2 5 -4 10 -1 4 -5 15 -9 25 -5 9 -5 24 -2 33 3 8 2 13 -3 10 -8
-5 -25 39 -19 47 2 2 -5 11 -15 21 -9 10 -15 22 -12 27 4 5 1 9 -5 9 -6 0 -8
5 -5 10 3 6 3 10 -2 10 -4 0 -15 15 -22 33 -8 17 -25 49 -39 69 -13 21 -21 42
-16 49 5 8 3 9 -6 4 -10 -6 -12 -4 -7 8 3 9 3 16 -1 16 -19 -3 -23 2 -12 16
11 13 10 14 -5 9 -13 -5 -16 -4 -11 4 4 7 2 12 -4 12 -6 0 -8 5 -5 10 3 6 1
10 -6 10 -7 0 -10 3 -6 6 3 4 -1 13 -9 21 -8 8 -11 19 -8 25 4 6 3 8 -3 5 -5
-3 -20 13 -33 36 -13 23 -32 49 -42 58 -10 9 -18 20 -18 23 0 4 -7 14 -15 22
-8 8 -12 22 -9 32 5 13 4 14 -4 3 -8 -10 -13 -9 -25 10 -9 12 -13 27 -10 32 3
6 1 7 -4 4 -6 -4 -18 4 -26 16 -8 13 -34 43 -56 66 -23 24 -38 48 -35 53 4 6
2 8 -3 5 -10 -7 -24 4 -93 67 -57 52 -79 61 -39 15 11 -13 29 -34 40 -47 10
-12 19 -24 19 -26 0 -3 14 -18 30 -34 28 -29 42 -61 20 -47 -5 3 -10 12 -10
20 0 7 -9 17 -20 20 -11 3 -20 10 -20 14 0 18 -221 231 -254 245 -20 8 -36 20
-36 25 0 6 -4 11 -9 11 -17 0 -111 67 -104 74 4 4 1 4 -8 1 -8 -3 -24 3 -34
13 -11 10 -28 21 -38 25 -11 4 -15 12 -11 18 4 8 3 9 -5 5 -6 -4 -28 5 -49 22
-20 16 -45 32 -54 35 -10 4 -18 10 -18 15 0 5 -6 9 -14 9 -18 0 -149 63 -157
75 -3 5 -9 9 -13 8 -3 0 -28 9 -54 21 -95 43 -427 145 -532 163 -14 3 -25 5
-25 6 0 2 -144 16 -201 19 -11 0 -29 8 -40 17 -18 15 -18 15 8 11 16 -2 25 0
21 6 -3 5 2 7 13 3 36 -11 123 -16 128 -7 3 5 -19 12 -50 16 -31 4 -78 13
-105 21 -51 15 -109 16 -394 3z m-2415 -2989 c0 -5 -2 -10 -4 -10 -3 0 -8 5
-11 10 -3 6 -1 10 4 10 6 0 11 -4 11 -10z"/>
<path d="M4396 5647 c3 -10 9 -15 12 -12 3 3 0 11 -7 18 -10 9 -11 8 -5 -6z"/>
<path d="M1305 5460 c-3 -6 1 -7 9 -4 18 7 21 14 7 14 -6 0 -13 -4 -16 -10z"/>
<path d="M795 4891 c-3 -5 -2 -12 3 -15 5 -3 9 1 9 9 0 17 -3 19 -12 6z"/>
<path d="M686 4802 c-3 -5 1 -9 9 -9 8 0 12 4 9 9 -3 4 -7 8 -9 8 -2 0 -6 -4
-9 -8z"/>
<path d="M615 4181 c-3 -5 -2 -12 3 -15 5 -3 9 1 9 9 0 17 -3 19 -12 6z"/>
<path d="M5580 3766 c0 -2 8 -10 18 -17 15 -13 16 -12 3 4 -13 16 -21 21 -21
13z"/>
<path d="M186 3718 c3 -5 10 -6 15 -3 13 9 11 12 -6 12 -8 0 -12 -4 -9 -9z"/>
<path d="M5570 3239 c0 -5 5 -7 10 -4 6 3 10 8 10 11 0 2 -4 4 -10 4 -5 0 -10
-5 -10 -11z"/>
<path d="M5566 3098 c3 -5 10 -6 15 -3 13 9 11 12 -6 12 -8 0 -12 -4 -9 -9z"/>
<path d="M5566 2938 c3 -5 10 -6 15 -3 13 9 11 12 -6 12 -8 0 -12 -4 -9 -9z"/>
<path d="M5555 2849 c-4 -6 -5 -12 -2 -15 2 -3 7 2 10 11 7 17 1 20 -8 4z"/>
<path d="M5555 2749 c-4 -6 -5 -12 -2 -15 2 -3 7 2 10 11 7 17 1 20 -8 4z"/>
<path d="M421 2488 c-1 -22 35 -179 56 -243 57 -176 97 -271 124 -299 15 -16
10 18 -7 53 -9 17 -13 39 -10 47 3 8 2 12 -3 9 -12 -7 -24 31 -15 46 4 7 3 9
-4 5 -6 -3 -14 4 -17 16 -4 13 -13 37 -20 53 -23 54 -74 209 -89 270 -8 33
-15 52 -15 43z"/>
<path d="M230 2440 c0 -5 5 -10 11 -10 5 0 7 5 4 10 -3 6 -8 10 -11 10 -2 0
-4 -4 -4 -10z"/>
<path d="M5493 2429 c-2 -23 3 -25 10 -4 4 8 3 16 -1 19 -4 3 -9 -4 -9 -15z"/>
<path d="M5446 2282 c-3 -5 1 -9 9 -9 8 0 12 4 9 9 -3 4 -7 8 -9 8 -2 0 -6 -4
-9 -8z"/>
<path d="M5410 2179 c0 -5 5 -7 10 -4 6 3 10 8 10 11 0 2 -4 4 -10 4 -5 0 -10
-5 -10 -11z"/>
<path d="M5394 2162 c3 -5 0 -13 -6 -15 -9 -4 -10 -6 -1 -6 17 -1 25 16 12 25
-7 4 -9 3 -5 -4z"/>
<path d="M555 1620 c3 -5 8 -10 11 -10 2 0 4 5 4 10 0 6 -5 10 -11 10 -5 0 -7
-4 -4 -10z"/>
<path d="M5075 1540 c3 -5 8 -10 11 -10 2 0 4 5 4 10 0 6 -5 10 -11 10 -5 0
-7 -4 -4 -10z"/>
<path d="M4896 1353 c-6 -14 -5 -15 5 -6 7 7 10 15 7 18 -3 3 -9 -2 -12 -12z"/>
<path d="M4853 1305 c0 -8 4 -12 9 -9 5 3 6 10 3 15 -9 13 -12 11 -12 -6z"/>
<path d="M4819 1288 c-5 -18 -6 -38 -1 -34 7 8 12 36 6 36 -2 0 -4 -1 -5 -2z"/>
<path d="M4740 1199 c0 -5 5 -7 10 -4 6 3 10 8 10 11 0 2 -4 4 -10 4 -5 0 -10
-5 -10 -11z"/>
<path d="M4686 1118 c3 -5 10 -6 15 -3 13 9 11 12 -6 12 -8 0 -12 -4 -9 -9z"/>
<path d="M4526 1018 c3 -5 10 -6 15 -3 13 9 11 12 -6 12 -8 0 -12 -4 -9 -9z"/>
<path d="M4390 929 c0 -5 5 -7 10 -4 6 3 10 8 10 11 0 2 -4 4 -10 4 -5 0 -10
-5 -10 -11z"/>
<path d="M4427 919 c7 -7 15 -10 18 -7 3 3 -2 9 -12 12 -14 6 -15 5 -6 -5z"/>
<path d="M4030 716 c7 -7 13 -7 20 0 6 6 3 10 -10 10 -13 0 -16 -4 -10 -10z"/>
<path d="M2769 523 c-13 -16 -12 -17 4 -4 16 13 21 21 13 21 -2 0 -10 -8 -17
-17z"/>
<path d="M3195 520 c3 -5 8 -10 11 -10 2 0 4 5 4 10 0 6 -5 10 -11 10 -5 0 -7
-4 -4 -10z"/>
<path d="M6006 3278 c3 -5 10 -6 15 -3 13 9 11 12 -6 12 -8 0 -12 -4 -9 -9z"/>
<path d="M6035 2771 c-3 -5 -2 -12 3 -15 5 -3 9 1 9 9 0 17 -3 19 -12 6z"/>
<path d="M5993 2685 c0 -8 4 -12 9 -9 5 3 6 10 3 15 -9 13 -12 11 -12 -6z"/>
<path d="M5516 1353 c-6 -14 -5 -15 5 -6 7 7 10 15 7 18 -3 3 -9 -2 -12 -12z"/>
<path d="M5395 1281 c-3 -5 -2 -12 3 -15 5 -3 9 1 9 9 0 17 -3 19 -12 6z"/>
<path d="M5290 1176 c0 -2 8 -10 18 -17 15 -13 16 -12 3 4 -13 16 -21 21 -21
13z"/>
<path d="M4610 521 c0 -6 4 -13 10 -16 6 -3 7 1 4 9 -7 18 -14 21 -14 7z"/>
<path d="M4156 287 c3 -10 9 -15 12 -12 3 3 0 11 -7 18 -10 9 -11 8 -5 -6z"/>
</g>
</svg>
